.
..............................Site Info...........................

 -   http://www.scenetime.com  *_*    

Scenetime .Always on time . friendly online private torrent community ..

     We care to share . Join us on  http://www.scenetime.com 

    Be the first to get new release at  http://www.scenetime.com

        Seed back for speed


...................................NFO:.................................................[IMG]http://i.imgur.com/ItQn5.jpg[/IMG]


[color=blue][size=4][b]Patient.Zero.2012.DVDRip.XVID.AC3.HQ.Hive-CM8[/b][/size][/color]


[b]Thx Hive

CM8 Doing It Right The First Time :D


Source: DVDR NOYK
thx

Encode:
dvd had great quality, added brightness, sharpness, rgb and denoise
got very nice
added bloopers as additional file

Video: 720x304 @bitrate 1700 2pass
Audio: English AC3 2.0 Stereo (as on dvd)
Extras: Yes, Bloopers in separate file
Sample: Yes, included[/b]
 
http://www.imdb.com/title/tt2246907/


General
Complete name                  : Patient.Zero.2012.DVDRip.XVID.AC3.HQ.Hive-CM8.avi
Format                         : AVI
Format/Info                    : Audio Video Interleave
File size                      : 926 MiB
Duration                       : 1h 8mn
Overall bit rate               : 1 901 Kbps
Writing application            : Nandub v1.0rc2
Writing library                : Nandub build 1853/release

Video
ID                             : 0
Format                         : MPEG-4 Visual
Format profile                 : Advanced Simple@L5
Format settings, BVOP          : 2
Format settings, QPel          : Yes
Format settings, GMC           : No warppoints
Format settings, Matrix        : Default (H.263)
Muxing mode                    : Packed bitstream
Codec ID                       : XVID
Codec ID/Hint                  : XviD
Duration                       : 1h 8mn
Bit rate                       : 1 699 Kbps
Width                          : 720 pixels
Height                         : 304 pixels
Display aspect ratio           : 2.35:1
Frame rate                     : 23.976 fps
Color space                    : YUV
Chroma subsampling             : 4:2:0
Bit depth                      : 8 bits
Scan type                      : Progressive
Compression mode               : Lossy
Bits/(Pixel*Frame)             : 0.324
Stream size                    : 827 MiB (89%)
Writing library                : XviD 1.2.1 (UTC 2008-12-04)

Audio
ID                             : 1
Format                         : AC-3
Format/Info                    : Audio Coding 3
Mode extension                 : CM (complete main)
Format settings, Endianness    : Big
Codec ID                       : 2000
Duration                       : 1h 8mn
Bit rate mode                  : Constant
Bit rate                       : 192 Kbps
Channel(s)                     : 2 channels
Channel positions              : Front: L R
Sampling rate                  : 48.0 KHz
Bit depth                      : 16 bits
Compression mode               : Lossy
Stream size                    : 93.5 MiB (10%)
Alignment                      : Split accross interleaves
Interleave, duration           : 42 ms (1.00 video frame)
Interleave, preload duration   : 500 ms


Plot:
Two young scientists are swept up in a government plot to suppress
the truth about a biological disaster at a genetic research facility.


Cast:
Brandon Slagle   ...     Dr. Jonathan Wright
Amanda Phillips  ...     Dr. Jenna Barnes
Van Quattro      ...     The Major


[img]http://img9.imageshack.us/img9/3987/17048106.png[/img]
[img]http://img694.imageshack.us/img694/6083/pzpzppzz.png[/img]
[img]http://img855.imageshack.us/img855/856/pzpzpz.png[/img]
[img]http://img28.imageshack.us/img28/2439/ppzz.png[/img]



Greetz

ViSiON,SPK,SceneLovers,PRESTiGE,SANTi,3LT0N,YanKeeS,COPYxRIGHT,THC,T0XiC
D2U,LKRG,ADTRG,Feel-Free,KoDeKinG,FLAWL3SS,WBZ,BHRG,26K,NOVA,MAGNET
Unevano,BigVik,Rapeseed,SAFC,TED,goldadvance,KaN1vE,Pinnz,Wayne
Mr Hive,jtr,Limey,ICONiK,SeeN and most P2P groups
Great Work Guys :D

LOOKING FOR ANYTHING YOU WANT TO LOOK AND SOUND BETTER

CM8@hushmail.com